<svg width="60" height="60" viewBox="0 0 60 60" fill="none" xmlns="http://www.w3.org/2000/svg">
<g clip-path="url(#clip0_9:33)">
<rect width="60" height="60" rx="30" fill="white"/>
<path d="M30.3 40.25C32.8959 40.25 35.4335 39.4802 37.5919 38.038C39.7503 36.5959 41.4326 34.546 42.426 32.1477C43.4194 29.7494 43.6793 27.1104 43.1729 24.5644C42.6664 22.0184 41.4164 19.6798 39.5808 17.8442C37.7453 16.0087 35.4066 14.7586 32.8606 14.2522C30.3146 13.7458 27.6756 14.0057 25.2773 14.9991C22.879 15.9925 20.8292 17.6748 19.387 19.8331C17.9448 21.9915 17.175 24.5291 17.175 27.125C17.175 30.606 18.5579 33.9444 21.0193 36.4058C23.4807 38.8672 26.8191 40.25 30.3 40.25Z" fill="#979797"/>
<path d="M32.175 44.25H28.425C22.955 44.25 17.7089 46.423 13.841 50.2909C9.97303 54.1589 7.80005 59.4049 7.80005 64.875C7.80005 65.3723 7.99759 65.8492 8.34922 66.2008C8.70085 66.5525 9.17777 66.75 9.67505 66.75H50.925C51.4223 66.75 51.8992 66.5525 52.2509 66.2008C52.6025 65.8492 52.8 65.3723 52.8 64.875C52.8 59.4049 50.6271 54.1589 46.7591 50.2909C42.8912 46.423 37.6451 44.25 32.175 44.25Z" fill="#979797"/>
</g>
<defs>
<clipPath id="clip0_9:33">
<rect width="60" height="60" rx="30" fill="white"/>
</clipPath>
</defs>
</svg>
