<?xml version="1.0" encoding="utf-8"?>
<!-- Generator: Adobe Illustrator 25.2.3, SVG Export Plug-In . SVG Version: 6.00 Build 0)  -->
<svg version="1.1" id="Слой_1" xmlns="http://www.w3.org/2000/svg" xmlns:xlink="http://www.w3.org/1999/xlink" x="0px" y="0px"
	 viewBox="0 0 60 60" style="enable-background:new 0 0 60 60;" xml:space="preserve">
<style type="text/css">
	.st0{fill:#FFFFFF;}
	.st1{fill:#979797;}
</style>
<g>
	<g>
		<path class="st0" d="M30,0L30,0c16.6,0,30,13.4,30,30l0,0c0,16.6-13.4,30-30,30l0,0C13.4,60,0,46.6,0,30l0,0C0,13.4,13.4,0,30,0z"
			/>
		<path class="st1" d="M30.3,40.2c2.6,0,5.1-0.8,7.3-2.2c2.2-1.4,3.8-3.5,4.8-5.9s1.3-5,0.7-7.6c-0.5-2.5-1.8-4.9-3.6-6.7
			c-1.8-1.8-4.2-3.1-6.7-3.6S27.7,14,25.3,15s-4.4,2.7-5.9,4.8c-1.4,2.2-2.2,4.7-2.2,7.3c0,3.5,1.4,6.8,3.8,9.3S26.8,40.2,30.3,40.2
			z"/>
		<path class="st1" d="M30.1,60c7.3,0,13.9-2.6,19.1-6.9c-0.7-1-1.5-2-2.3-2.8c-3.9-3.9-9.1-6-14.6-6h-3.8c-5.5,0-10.7,2.2-14.6,6
			c-1,1-1.8,2-2.6,3.1C16.5,57.5,23,60,30.1,60z"/>
	</g>
</g>
</svg>
